<?xml version="1.0" standalone="no"?>
<!DOCTYPE svg PUBLIC "-//W3C//DTD SVG 20010904//EN"
 "http://www.w3.org/TR/2001/REC-SVG-20010904/DTD/svg10.dtd">
<svg version="1.0" xmlns="http://www.w3.org/2000/svg"
 width="995.000000pt" height="995.000000pt" viewBox="0 0 995.000000 995.000000"
 preserveAspectRatio="xMidYMid meet">
<metadata>
Created by potrace 1.11, written by Peter Selinger 2001-2013
</metadata>
<g transform="translate(0.000000,995.000000) scale(0.100000,-0.100000)"
fill="#000000" stroke="none">
<path d="M197 8989 c-308 -73 -224 -433 240 -1026 102 -131 227 -276 343 -398
194 -203 248 -265 331 -376 182 -243 348 -512 500 -811 l100 -198 247 0 c325
0 595 -13 2002 -95 959 -56 1004 -57 1252 -45 123 6 570 31 993 55 1218 71
1492 84 1799 88 l158 2 34 123 c36 133 69 198 182 361 91 131 186 243 359 422
198 205 248 281 343 519 147 369 240 447 555 469 149 9 216 32 264 87 93 105
44 316 -111 480 -95 100 -172 139 -272 137 -88 -1 -151 -16 -395 -93 -450
-141 -699 -184 -1146 -200 -523 -18 -761 -79 -1560 -396 -602 -238 -868 -328
-1123 -376 -166 -32 -455 -32 -622 0 -255 48 -473 120 -1060 352 -564 222
-812 307 -1059 360 -71 15 -140 39 -220 77 -629 296 -1133 440 -1690 483 -159
12 -391 12 -444 -1z"/>
<path d="M2730 5629 c-307 -15 -411 -36 -483 -99 -170 -150 -148 -499 47 -746
147 -187 369 -287 718 -325 131 -15 444 -6 561 16 226 41 384 110 468 204 67
74 140 185 194 297 58 118 123 315 127 383 l3 53 -75 29 c-253 99 -635 168
-1050 189 -213 11 -278 11 -510 -1z"/>
<path d="M6755 5629 c-382 -16 -739 -76 -1005 -167 -101 -35 -140 -52 -140
-63 0 -32 34 -170 60 -244 99 -282 260 -510 410 -582 83 -39 208 -77 330 -100
136 -25 544 -25 680 0 349 65 561 201 680 437 136 270 87 584 -103 664 -107
44 -548 71 -912 55z"/>
<path d="M4951 5154 c-17 -26 -47 -90 -67 -143 -20 -53 -53 -136 -72 -186 -51
-134 -145 -310 -212 -400 -76 -102 -195 -224 -275 -281 -163 -116 -397 -199
-665 -236 -126 -17 -708 -17 -840 0 -327 43 -615 138 -795 260 -33 22 -61 39
-63 38 -5 -5 37 -319 64 -481 57 -339 130 -597 225 -791 53 -109 70 -133 171
-243 238 -257 293 -320 402 -456 123 -153 263 -346 403 -555 121 -181 162
-231 239 -291 45 -36 73 -67 91 -103 38 -75 71 -114 122 -144 42 -25 54 -27
151 -26 75 0 128 7 187 22 94 25 191 28 279 7 33 -7 146 -41 252 -75 266 -84
368 -110 432 -110 64 0 166 26 432 110 106 34 219 68 252 75 88 21 185 18 279
-7 59 -15 112 -22 187 -22 97 -1 109 1 151 26 51 30 84 69 122 144 18 36 46
67 91 103 77 60 118 110 239 291 140 209 280 402 403 555 109 136 164 199 402
456 101 110 118 134 171 243 117 239 202 580 266 1071 13 99 22 181 20 183 -1
2 -27 -12 -56 -31 -123 -78 -268 -137 -454 -185 -209 -53 -318 -67 -648 -82
-659 -29 -1098 107 -1373 427 -141 165 -227 319 -329 594 -32 85 -67 172 -78
194 -23 47 -58 95 -68 95 -4 0 -21 -21 -38 -46z"/>
</g>
</svg>
